<mxfile host="app.diagrams.net" agent="Mozilla/5.0 (Windows NT 10.0; Win64; x64) AppleWebKit/537.36 (KHTML, like Gecko) Chrome/131.0.0.0 Safari/537.36" version="26.0.5">
  <diagram name="Trang-1" id="xM7gsyW6meXyn8PrXsl-">
    <mxGraphModel dx="1050" dy="603" grid="1" gridSize="10" guides="1" tooltips="1" connect="1" arrows="1" fold="1" page="1" pageScale="1" pageWidth="827" pageHeight="1169" math="0" shadow="0">
      <root>
        <mxCell id="0" />
        <mxCell id="1" parent="0" />
        <mxCell id="7PJxNTmt-fjSKnuqI0EQ-2" value="student" style="rounded=0;whiteSpace=wrap;html=1;" vertex="1" parent="1">
          <mxGeometry x="160" y="250" width="120" height="60" as="geometry" />
        </mxCell>
        <mxCell id="7PJxNTmt-fjSKnuqI0EQ-3" value="classroom" style="rounded=0;whiteSpace=wrap;html=1;" vertex="1" parent="1">
          <mxGeometry x="440" y="250" width="120" height="60" as="geometry" />
        </mxCell>
        <mxCell id="7PJxNTmt-fjSKnuqI0EQ-5" value="" style="endArrow=none;html=1;rounded=0;entryX=0.5;entryY=1;entryDx=0;entryDy=0;exitX=0.5;exitY=0;exitDx=0;exitDy=0;" edge="1" parent="1" source="7PJxNTmt-fjSKnuqI0EQ-2" target="7PJxNTmt-fjSKnuqI0EQ-4">
          <mxGeometry width="50" height="50" relative="1" as="geometry">
            <mxPoint x="210" y="240" as="sourcePoint" />
            <mxPoint x="260" y="190" as="targetPoint" />
          </mxGeometry>
        </mxCell>
        <mxCell id="7PJxNTmt-fjSKnuqI0EQ-4" value="id" style="ellipse;whiteSpace=wrap;html=1;fontStyle=4" vertex="1" parent="1">
          <mxGeometry x="170" y="140" width="100" height="60" as="geometry" />
        </mxCell>
        <mxCell id="7PJxNTmt-fjSKnuqI0EQ-11" value="StudentName" style="ellipse;whiteSpace=wrap;html=1;" vertex="1" parent="1">
          <mxGeometry x="10" y="250" width="90" height="60" as="geometry" />
        </mxCell>
        <mxCell id="7PJxNTmt-fjSKnuqI0EQ-12" value="" style="endArrow=none;html=1;rounded=0;entryX=0;entryY=0.5;entryDx=0;entryDy=0;exitX=1;exitY=0.5;exitDx=0;exitDy=0;" edge="1" parent="1" source="7PJxNTmt-fjSKnuqI0EQ-11" target="7PJxNTmt-fjSKnuqI0EQ-2">
          <mxGeometry width="50" height="50" relative="1" as="geometry">
            <mxPoint x="90" y="390" as="sourcePoint" />
            <mxPoint x="140" y="340" as="targetPoint" />
          </mxGeometry>
        </mxCell>
        <mxCell id="7PJxNTmt-fjSKnuqI0EQ-13" value="" style="endArrow=none;html=1;rounded=0;entryX=0;entryY=0;entryDx=0;entryDy=0;exitX=1;exitY=1;exitDx=0;exitDy=0;" edge="1" parent="1" source="7PJxNTmt-fjSKnuqI0EQ-16" target="7PJxNTmt-fjSKnuqI0EQ-2">
          <mxGeometry width="50" height="50" relative="1" as="geometry">
            <mxPoint x="110" y="250" as="sourcePoint" />
            <mxPoint x="160" y="200" as="targetPoint" />
          </mxGeometry>
        </mxCell>
        <mxCell id="7PJxNTmt-fjSKnuqI0EQ-15" value="name" style="ellipse;whiteSpace=wrap;html=1;" vertex="1" parent="1">
          <mxGeometry x="10" y="250" width="90" height="60" as="geometry" />
        </mxCell>
        <mxCell id="7PJxNTmt-fjSKnuqI0EQ-16" value="age" style="ellipse;whiteSpace=wrap;html=1;" vertex="1" parent="1">
          <mxGeometry x="40" y="160" width="90" height="60" as="geometry" />
        </mxCell>
        <mxCell id="7PJxNTmt-fjSKnuqI0EQ-17" value="" style="endArrow=none;html=1;rounded=0;entryX=0.5;entryY=1;entryDx=0;entryDy=0;exitX=0.5;exitY=0;exitDx=0;exitDy=0;" edge="1" target="7PJxNTmt-fjSKnuqI0EQ-18" parent="1" source="7PJxNTmt-fjSKnuqI0EQ-3">
          <mxGeometry width="50" height="50" relative="1" as="geometry">
            <mxPoint x="500" y="250" as="sourcePoint" />
            <mxPoint x="540" y="190" as="targetPoint" />
          </mxGeometry>
        </mxCell>
        <mxCell id="7PJxNTmt-fjSKnuqI0EQ-18" value="classId" style="ellipse;whiteSpace=wrap;html=1;fontStyle=4" vertex="1" parent="1">
          <mxGeometry x="450" y="140" width="100" height="60" as="geometry" />
        </mxCell>
        <mxCell id="7PJxNTmt-fjSKnuqI0EQ-20" value="N" style="edgeStyle=orthogonalEdgeStyle;rounded=0;orthogonalLoop=1;jettySize=auto;html=1;" edge="1" parent="1" source="7PJxNTmt-fjSKnuqI0EQ-19" target="7PJxNTmt-fjSKnuqI0EQ-2">
          <mxGeometry relative="1" as="geometry" />
        </mxCell>
        <mxCell id="7PJxNTmt-fjSKnuqI0EQ-19" value="CÃ³" style="rhombus;whiteSpace=wrap;html=1;" vertex="1" parent="1">
          <mxGeometry x="320" y="240" width="80" height="80" as="geometry" />
        </mxCell>
        <mxCell id="7PJxNTmt-fjSKnuqI0EQ-21" value="1" style="endArrow=none;html=1;rounded=0;exitX=1;exitY=0.5;exitDx=0;exitDy=0;entryX=0;entryY=0.5;entryDx=0;entryDy=0;" edge="1" parent="1" source="7PJxNTmt-fjSKnuqI0EQ-19" target="7PJxNTmt-fjSKnuqI0EQ-3">
          <mxGeometry width="50" height="50" relative="1" as="geometry">
            <mxPoint x="390" y="330" as="sourcePoint" />
            <mxPoint x="410" y="320" as="targetPoint" />
          </mxGeometry>
        </mxCell>
        <mxCell id="7PJxNTmt-fjSKnuqI0EQ-22" value="" style="endArrow=none;html=1;rounded=0;entryX=0.5;entryY=1;entryDx=0;entryDy=0;exitX=0.5;exitY=0;exitDx=0;exitDy=0;" edge="1" parent="1" source="7PJxNTmt-fjSKnuqI0EQ-23" target="7PJxNTmt-fjSKnuqI0EQ-2">
          <mxGeometry width="50" height="50" relative="1" as="geometry">
            <mxPoint x="140" y="380" as="sourcePoint" />
            <mxPoint x="180" y="330" as="targetPoint" />
          </mxGeometry>
        </mxCell>
        <mxCell id="7PJxNTmt-fjSKnuqI0EQ-23" value="classId" style="ellipse;whiteSpace=wrap;html=1;" vertex="1" parent="1">
          <mxGeometry x="170" y="360" width="100" height="60" as="geometry" />
        </mxCell>
        <mxCell id="7PJxNTmt-fjSKnuqI0EQ-24" value="" style="endArrow=none;html=1;rounded=0;entryX=0.5;entryY=1;entryDx=0;entryDy=0;exitX=0.5;exitY=0;exitDx=0;exitDy=0;" edge="1" parent="1" source="7PJxNTmt-fjSKnuqI0EQ-25" target="7PJxNTmt-fjSKnuqI0EQ-3">
          <mxGeometry width="50" height="50" relative="1" as="geometry">
            <mxPoint x="420" y="390" as="sourcePoint" />
            <mxPoint x="500" y="320" as="targetPoint" />
          </mxGeometry>
        </mxCell>
        <mxCell id="7PJxNTmt-fjSKnuqI0EQ-25" value="name" style="ellipse;whiteSpace=wrap;html=1;" vertex="1" parent="1">
          <mxGeometry x="450" y="360" width="100" height="60" as="geometry" />
        </mxCell>
        <mxCell id="7PJxNTmt-fjSKnuqI0EQ-26" value="teacher" style="ellipse;whiteSpace=wrap;html=1;" vertex="1" parent="1">
          <mxGeometry x="620" y="250" width="100" height="60" as="geometry" />
        </mxCell>
        <mxCell id="7PJxNTmt-fjSKnuqI0EQ-28" value="" style="endArrow=none;html=1;rounded=0;exitX=1;exitY=0.5;exitDx=0;exitDy=0;entryX=0;entryY=0.5;entryDx=0;entryDy=0;" edge="1" parent="1" source="7PJxNTmt-fjSKnuqI0EQ-3" target="7PJxNTmt-fjSKnuqI0EQ-26">
          <mxGeometry width="50" height="50" relative="1" as="geometry">
            <mxPoint x="630" y="400" as="sourcePoint" />
            <mxPoint x="680" y="350" as="targetPoint" />
          </mxGeometry>
        </mxCell>
      </root>
    </mxGraphModel>
  </diagram>
</mxfile>
